<svg aria-hidden="true" style="position: absolute; width: 0; height: 0; overflow: hidden;" version="1.1" xmlns="http://www.w3.org/2000/svg" xmlns:xlink="http://www.w3.org/1999/xlink">
<defs>
<symbol id="icon-social-2" viewBox="0 0 32 32">
  <path d="M16 0c8.837 0 16 7.163 16 16s-7.163 16-16 16c-8.837 0-16-7.163-16-16s7.163-16 16-16z"></path>
  <path d="M22.251 10.987c0.689 0.175 1.231 0.693 1.415 1.351 0.335 1.192 0.335 3.68 0.335 3.68s0 2.487-0.333 3.679c-0.185 0.657-0.727 1.153-1.416 1.329-1.247 0.32-6.251 0.32-6.251 0.32s-5.003 0-6.251-0.32c-0.689-0.176-1.231-0.672-1.415-1.329-0.335-1.192-0.335-3.68-0.335-3.68s0-2.487 0.333-3.679c0.202-0.67 0.735-1.181 1.404-1.348l0.014-0.003c1.247-0.32 6.249-0.32 6.249-0.32s5.003 0 6.251 0.32zM14.364 13.759v4.516l4.181-2.259-4.181-2.257z"></path>
</symbol>
<symbol id="icon-social-1" viewBox="0 0 32 32">
  <path d="M16 0c8.837 0 16 7.163 16 16s-7.163 16-16 16c-8.837 0-16-7.163-16-16s7.163-16 16-16z"></path>
  <path d="M24 9c0 0.552-0.448 1-1 1s-1-0.448-1-1c0-0.552 0.448-1 1-1s1 0.448 1 1z"></path>
  <path d="M16 23v0c-3.866 0-7-3.134-7-7s3.134-7 7-7v0c3.866 0 7 3.134 7 7s-3.134 7-7 7zM16 20.667c2.577 0 4.667-2.089 4.667-4.667s-2.089-4.667-4.667-4.667v0c-2.577 0-4.667 2.089-4.667 4.667s2.089 4.667 4.667 4.667v0z"></path>
</symbol>
<symbol id="icon-social-3" viewBox="0 0 32 32">
  <path d="M16 0c8.837 0 16 7.163 16 16s-7.163 16-16 16c-8.837 0-16-7.163-16-16s7.163-16 16-16z"></path>
  <path d="M20 13.181h-2.952v-1.661c0-0.624 0.481-0.769 0.821-0.769h2.083v-2.741l-2.868-0.009c-3.185 0-3.911 2.045-3.911 3.353v1.827h-1.84v2.827h1.84v7.993h3.875v-7.993h2.613l0.339-2.828z"></path>
</symbol>
<symbol id="icon-menu-btn" viewBox="0 0 48 32">
  <path d="M45.467 13.333h-42.933c-1.399 0-2.533 0.681-2.533 1.52v0.16c0 0.839 1.134 1.52 2.533 1.52h42.933c1.399 0 2.533-0.681 2.533-1.52v-0.16c0-0.839-1.134-1.52-2.533-1.52zM45.467 26.667h-42.933c-1.399 0-2.533 0.681-2.533 1.52v0.16c0 0.839 1.134 1.52 2.533 1.52h42.933c1.399 0 2.533-0.681 2.533-1.52v-0.16c0-0.839-1.134-1.52-2.533-1.52zM45.467 0h-42.933c-1.399 0-2.533 0.681-2.533 1.52v0.16c0 0.839 1.134 1.52 2.533 1.52h42.933c1.399 0 2.533-0.681 2.533-1.52v-0.16c0-0.839-1.134-1.52-2.533-1.52z"></path>
</symbol>
<symbol id="icon-close" viewBox="0 0 32 32">
  <path d="M29.629 30.222l-27.259-28.444M29.629 1.778l-27.259 28.444"></path>
</symbol>
<symbol id="icon-circle-close" viewBox="0 0 32 32">
  <path d="M20.5 11.5l-9 9M11.5 11.5l9 9M16 28.5c6.904 0 12.5-5.597 12.5-12.5s-5.597-12.5-12.5-12.5c-6.904 0-12.5 5.597-12.5 12.5s5.597 12.5 12.5 12.5z"></path>
</symbol>
<symbol id="icon-thumb-down" viewBox="0 0 32 32">
  <path d="M2.787 17.889c-0.003 0.033-0.005 0.072-0.005 0.111 0 0.736 0.597 1.333 1.333 1.333 0 0 0.001 0 0.001 0h2.55c0.736 0 1.333-0.597 1.333-1.333v0-13.333c0-0.736-0.597-1.333-1.333-1.333v0h-1.44c-0.697 0-1.27 0.535-1.328 1.218l-0 0.005-1.111 13.333h-0.001zM12 17.75c0 0.557 0.347 1.056 0.85 1.293 1.099 0.519 2.972 1.561 3.817 2.969 1.089 1.816 1.293 5.097 1.327 5.848 0.005 0.105 0.003 0.211 0.017 0.315 0.18 1.302 2.693-0.219 3.657-1.827 0.523-0.872 0.59-2.018 0.535-2.913-0.060-0.957-0.34-1.882-0.615-2.801l-0.587-1.958h7.238c0.736-0 1.333-0.598 1.333-1.334 0-0.129-0.018-0.253-0.052-0.371l0.002 0.009-3.58-12.677c-0.163-0.565-0.676-0.971-1.283-0.971-0 0-0.001 0-0.001 0h-11.324c-0.736 0-1.333 0.597-1.333 1.333v0 13.083z"></path>
</symbol>
<symbol id="icon-thumb-up" viewBox="0 0 32 32">
  <path d="M2.787 14.111c-0.003-0.033-0.005-0.072-0.005-0.111 0-0.736 0.597-1.333 1.333-1.333 0 0 0.001 0 0.001 0h2.55c0.736 0 1.333 0.597 1.333 1.333v0 13.333c0 0.736-0.597 1.333-1.333 1.333v0h-1.44c-0.697-0-1.27-0.535-1.328-1.218l-0-0.005-1.111-13.333h-0.001zM12 14.25c0-0.557 0.347-1.056 0.85-1.293 1.099-0.519 2.972-1.561 3.817-2.969 1.089-1.816 1.293-5.097 1.327-5.848 0.005-0.105 0.003-0.211 0.017-0.315 0.18-1.302 2.693 0.219 3.657 1.827 0.523 0.872 0.59 2.018 0.535 2.913-0.060 0.957-0.34 1.882-0.615 2.801l-0.587 1.958h7.238c0.736 0 1.333 0.598 1.333 1.334 0 0.129-0.018 0.253-0.052 0.371l0.002-0.009-3.58 12.677c-0.163 0.565-0.676 0.971-1.283 0.971-0 0-0.001 0-0.001 0h-11.324c-0.736 0-1.333-0.597-1.333-1.333v0-13.083z"></path>
</symbol>

<symbol id="icon-Vector" viewBox="0 0 174 32">
<path d=""></path>
</symbol>
</defs>
</svg>
